<svg width="80" height="28" viewBox="0 0 80 28" fill="none" xmlns="http://www.w3.org/2000/svg">
<g clip-path="url(#clip0_2651_2985)">
<path fill-rule="evenodd" clip-rule="evenodd" d="M79.3274 6.12769L71.9736 20.2548C71.6606 20.9268 71.4134 21.455 71.232 21.8398C71.0506 22.2246 70.833 22.6767 70.5787 23.1957C70.3246 23.7151 70.1154 24.115 69.951 24.3959C69.7866 24.6771 69.5898 25.0006 69.3605 25.367C69.1313 25.7335 68.9308 26.0114 68.7587 26.2007C68.5866 26.3903 68.3832 26.5978 68.1487 26.8237C67.914 27.0498 67.6889 27.2177 67.4734 27.3275C67.2576 27.4375 67.0143 27.5446 66.7432 27.6482C66.472 27.7522 66.1895 27.8223 65.8956 27.859C65.6015 27.8956 65.285 27.9139 64.9461 27.9139C64.5619 27.9139 64.2196 27.8836 63.9188 27.8223C63.6179 27.7613 63.3447 27.688 63.099 27.6024C62.853 27.5171 62.6311 27.3705 62.4333 27.1626C62.2356 26.9551 62.0639 26.7596 61.9189 26.5764C61.7738 26.3931 61.6382 26.1154 61.5127 25.7426C61.3869 25.3701 61.2802 25.0372 61.1926 24.744C61.1047 24.4509 61.0131 24.0265 60.9172 23.4706C60.8214 22.9149 60.743 22.4261 60.6818 22.0047C60.6206 21.5833 60.5378 21.0001 60.4334 20.2548L57.6874 6.12769C57.5895 5.48042 57.5998 4.86346 57.7181 4.27709C57.9485 3.14102 58.4982 2.29814 59.3674 1.74843C60.1986 1.22336 61.0117 1.1561 61.8066 1.54695C62.7908 2.02333 63.3773 3.0677 63.5663 4.68016L66.1085 20.7862L73.9203 4.68016C74.2258 3.98391 74.5902 3.37926 75.0127 2.86622C75.8598 1.8281 76.7805 1.30871 77.7747 1.30871C78.6331 1.30871 79.2548 1.68752 79.6398 2.44477C80.1355 3.42218 80.0314 4.64985 79.3274 6.12769ZM55.8272 5.61464C55.2731 6.10335 54.6683 6.34755 54.0133 6.34755H49.4548L46.5504 24.1577C46.381 25.1961 45.9274 26.0907 45.1892 26.842C44.451 27.5933 43.6525 27.9688 42.794 27.9688C41.924 27.9688 41.2482 27.5933 40.7663 26.842C40.2845 26.0907 40.1279 25.1961 40.2974 24.1577L43.2017 6.34755H38.5416C37.8863 6.34755 37.3589 6.10027 36.9596 5.6055C36.5603 5.11074 36.4173 4.51523 36.531 3.81899C36.6442 3.12274 36.9816 2.52724 37.5424 2.03247C38.1032 1.53781 38.7111 1.29042 39.3665 1.29042H54.838C55.4931 1.29042 56.0177 1.53781 56.4116 2.03247C56.8054 2.52724 56.9447 3.12899 56.8292 3.83727C56.7153 4.53361 56.3814 5.12623 55.8272 5.61464ZM33.7789 5.02828C33.1546 5.56596 32.4018 5.83451 31.5207 5.83451C30.6506 5.83451 29.9884 5.56596 29.534 5.02828C29.0794 4.49089 28.9237 3.78233 29.0672 2.90288C29.2086 2.03565 29.5936 1.33622 30.2227 0.804802C30.8516 0.273476 31.6067 0.0078125 32.4879 0.0078125C33.369 0.0078125 34.0318 0.273476 34.4761 0.804802C34.9205 1.33622 35.0719 2.03565 34.9305 2.90288C34.787 3.78233 34.4033 4.49089 33.7789 5.02828ZM30.8015 9.51752C31.773 9.51752 32.4285 9.84447 32.7683 10.4978C33.1079 11.1514 33.1724 12.1257 32.961 13.4203L31.2251 24.0661C31.0099 25.3853 30.6522 26.3656 30.1522 27.0069C29.6524 27.6482 28.9221 27.9688 27.962 27.9688C26.9791 27.9688 26.3286 27.6454 26.0106 26.9978C25.6923 26.3504 25.6399 25.3733 25.8533 24.0661L27.5892 13.4203C27.8005 12.1257 28.1598 11.1514 28.6674 10.4978C29.175 9.84447 29.8864 9.51752 30.8015 9.51752ZM21.3668 24.1577C21.1954 25.2084 20.7411 26.1062 20.004 26.8512C19.2668 27.5964 18.4688 27.9688 17.6104 27.9688C16.7516 27.9688 16.0781 27.5964 15.5896 26.8512C15.101 26.1062 14.9424 25.2084 15.1137 24.1577L16.2742 16.9384H7.49629L6.31881 24.1577C6.1475 25.2084 5.69607 26.1062 4.96441 26.8512C4.23284 27.5964 3.43213 27.9688 2.56237 27.9688C1.70372 27.9688 1.03008 27.5964 0.541542 26.8512C0.0530883 26.1062 -0.105577 25.2084 0.0657246 24.1577L3.17344 5.1016C3.34457 4.05117 3.796 3.15334 4.52757 2.40812C5.25914 1.66318 6.05424 1.29042 6.91298 1.29042C7.78274 1.29042 8.4619 1.66318 8.95044 2.40812C9.43898 3.15334 9.59756 4.05117 9.42653 5.1016L8.38964 11.4597H17.1677L18.2045 5.1016C18.3737 4.06348 18.8275 3.16854 19.5657 2.41726C20.3039 1.66607 21.1023 1.29042 21.9609 1.29042C22.8194 1.29042 23.4958 1.66318 23.9899 2.40812C24.4841 3.15334 24.6456 4.05117 24.4745 5.1016L21.3668 24.1577Z" fill="#DC41EB"/>
</g>
<defs>
<clipPath id="clip0_2651_2985">
<rect width="80" height="28" fill="white"/>
</clipPath>
</defs>
</svg>
